<svg width="181" height="38" viewBox="0 0 181 38" fill="none" xmlns="http://www.w3.org/2000/svg">
<g clip-path="url(#clip0)">
<path d="M5.74482 20.72V18.46C12.0704 17.5423 18.4494 17.0979 24.8343 17.13C24.8343 17.73 24.8343 18.34 24.7775 18.95C26.5924 18.099 28.4996 17.4877 30.4561 17.13C29.2091 13.722 26.937 10.8412 23.9892 8.93087C21.0414 7.02052 17.5813 6.1864 14.141 6.55683C10.7007 6.92727 7.47091 8.48172 4.94842 10.9811C2.42593 13.4804 0.750487 16.7863 0.179821 20.39L5.74482 20.72Z" fill="#FDC305"/>
<path d="M25.7807 24.23C24.6829 25.51 24.4652 25.43 24.4652 27.68C24.4652 28.59 24.4652 32.58 24.4652 36.86C26.6349 35.346 28.4161 33.2879 29.6497 30.8694C30.8834 28.4509 31.5311 25.7474 31.535 23C31.5225 21.9591 31.4212 20.9216 31.2321 19.9C29.2713 21.1295 27.4434 22.5814 25.7807 24.23Z" fill="#FDC305"/>
<path d="M6.01929 25.72C6.01929 25.72 2.43232 24.28 1.10732 23.89C0.744903 23.7693 0.374878 23.6757 0 23.61C0.102589 26.496 0.91386 29.3041 2.35414 31.7586C3.79441 34.2131 5.81416 36.2296 8.215 37.61L6.01929 25.72Z" fill="#FDC305"/>
<path d="M24.8816 17.12C24.9201 11.5986 24.4766 6.08528 23.5566 0.65C23.5566 0.65 23.4241 -0.64 22.7143 0.41C22.1568 1.65814 21.7742 2.98539 21.5786 4.35C17.5485 4.07577 13.5032 4.18957 9.49268 4.69C8.745 2 7.42946 0.75 6.79536 1C6.16125 1.25 6.11393 4.31 6.11393 4.31L5.80161 18.41C12.1249 17.506 18.5008 17.0749 24.8816 17.12V17.12Z" fill="#F06351"/>
<path d="M11.7452 14C11.7452 13.91 12.6916 14.68 13.0796 14.92C13.4677 15.16 13.657 15.34 13.657 15.51C13.657 15.68 13.4014 15.85 13.0607 15.85C12.72 15.85 12.1995 15.73 12.1143 15.58H13.0039H13.2784C12.7018 15.1294 12.1859 14.5978 11.7452 14V14Z" fill="black"/>
<path d="M18.8245 14.11L17.7929 15.44C17.7929 15.5 17.632 15.79 17.9632 15.74C18.3552 15.6783 18.7415 15.5812 19.1179 15.45C19.222 15.45 19.1841 15.26 19.0138 15.28C18.8434 15.3 18.3607 15.33 18.0673 15.39L18.8623 14.13C18.8623 14.13 18.9286 14 18.8245 14.11Z" fill="black"/>
<path d="M15.8527 20.2C16.2914 19.9958 16.654 19.6443 16.8843 19.2C17.1493 18.55 16.8843 18.29 16.4679 18.2C15.898 18.0902 15.3099 18.2116 14.8211 18.54C14.452 18.9 14.4993 19.26 14.7738 19.54C15.1062 19.8062 15.4686 20.0279 15.8527 20.2V20.2Z" fill="black"/>
<path d="M15.4741 21.45C15.3681 21.6785 15.2201 21.8825 15.0388 22.05C14.7692 22.2791 14.4379 22.4122 14.0923 22.43C13.5943 22.472 13.0991 22.3189 12.7011 22C12.5139 21.8808 12.3448 21.7324 12.1995 21.56C12.1044 21.4491 11.9883 21.3605 11.8587 21.3C11.8587 21.3 12.5686 25.4 14.2911 26.05C16.0136 26.7 16.3164 25.3 16.3732 24.92C16.4301 23.7851 16.1595 22.6588 15.5971 21.69C15.5782 21.38 15.5688 21.58 15.4741 21.45Z" fill="#F06351"/>
<path d="M13.922 22.59C13.4822 22.5247 13.0597 22.3651 12.6804 22.1209C12.3012 21.8767 11.9733 21.5531 11.7168 21.17C11.7042 21.157 11.6942 21.1414 11.6874 21.1242C11.6805 21.1071 11.677 21.0886 11.677 21.07C11.677 21.0514 11.6805 21.0329 11.6874 21.0158C11.6942 20.9986 11.7042 20.983 11.7168 20.97C11.7291 20.9567 11.7438 20.9461 11.7601 20.9389C11.7764 20.9317 11.7938 20.928 11.8114 20.928C11.8291 20.928 11.8465 20.9317 11.8628 20.9389C11.879 20.9461 11.8937 20.9567 11.9061 20.97C12.3838 21.6642 13.1014 22.1313 13.903 22.27V22.27C14.2169 22.245 14.5207 22.1413 14.789 21.9674C15.0573 21.7934 15.2824 21.5544 15.4457 21.27L15.5782 21.08L15.6729 21.29C15.6729 21.29 16.023 22.05 16.6193 22.09C17.2155 22.13 17.613 21.68 18.143 20.81C18.1554 20.7967 18.1701 20.7861 18.1864 20.7789C18.2026 20.7717 18.2201 20.768 18.2377 20.768C18.2553 20.768 18.2728 20.7717 18.289 20.7789C18.3053 20.7861 18.32 20.7967 18.3323 20.81C18.3629 20.8306 18.3849 20.8629 18.3937 20.9C18.4025 20.9372 18.3974 20.9766 18.3796 21.01C17.7739 22.01 17.1777 22.45 16.6004 22.41C16.3808 22.3763 16.1713 22.2904 15.9877 22.1587C15.8041 22.0271 15.6511 21.8531 15.5404 21.65C15.3542 21.9245 15.1122 22.1514 14.8321 22.3141C14.5521 22.4767 14.2411 22.571 13.922 22.59V22.59Z" fill="black"/>
<path d="M24.8343 18.92C23.1349 20.5437 21.5324 22.277 20.0359 24.11C18.5487 25.9361 16.869 27.5768 15.0293 29C14.8211 28.47 13.4961 27.49 13.4961 27.49C13.4961 27.49 10.5337 25.35 8.59357 23.67C7.54695 22.7373 6.55752 21.7353 5.63125 20.67L3.73839 20.56C6.47374 24.7655 10.4772 27.8676 15.0955 29.36C15.9095 29.22 18.1904 27.5 19.8939 26.1C21.8993 24.2819 23.7781 22.3134 25.5157 20.21C25.9913 19.621 26.3573 18.9425 26.5946 18.21C25.5536 18.6 24.8343 18.92 24.8343 18.92Z" fill="#F06351"/>
</g>
<g clip-path="url(#clip1)">
<path d="M86.3753 29.5385C85.5283 28.2762 85.1079 26.7627 85.1786 25.2308V18.8462C85.076 17.2977 85.4701 15.7575 86.3005 14.4615C87.1233 13.4615 88.3948 13 90.2647 13C92.1346 13 93.3313 13.4615 94.0793 14.3077C94.8914 15.3794 95.2908 16.7214 95.2012 18.0769V19.6154H91.5362V17.8462C91.5658 17.3229 91.4894 16.799 91.3119 16.3077C91.2169 16.1094 91.0665 15.9448 90.8799 15.8351C90.6933 15.7255 90.479 15.6757 90.2647 15.6923C89.7411 15.6923 89.3672 15.8462 89.2176 16.2308C89.0484 16.7773 88.9724 17.3499 88.9932 17.9231V26.1538C88.9537 26.71 89.0568 27.267 89.2924 27.7692C89.442 28.1538 89.8159 28.3077 90.3395 28.3077C90.8631 28.3077 91.1623 28.1538 91.3119 27.7692C91.4819 27.2494 91.558 26.7019 91.5362 26.1538V24.3077H95.2012V25.8462C95.2773 27.2238 94.8802 28.5852 94.0793 29.6923C93.3313 30.6154 92.0598 31.0769 90.2647 31.0769C88.4696 31 87.1233 30.5385 86.3753 29.5385Z" fill="#111111"/>
<path d="M99.6142 13.2308H103.878L107.019 30.7692H103.578L102.98 27.0769H100.512L99.9134 30.7692H96.398L99.6142 13.2308ZM102.681 24.7692L101.783 17.9231L100.886 24.7692H102.681Z" fill="#111111"/>
<path d="M109.637 16.1538H107.094V13.2308H115.995V16.0769H113.451V30.7692H109.637V16.1538Z" fill="#111111"/>
<path d="M122.801 13.2308H129.383V15.0769H125.12V20.8462H128.56V22.6154H125.12V29.0769H129.383V30.8462H122.726V13.2308H122.801Z" fill="#111111"/>
<path d="M131.328 13.2308H132.973L137.835 24.8462V13.2308H139.78V30.7692H138.284L133.347 18.7692V30.7692H131.328V13.2308Z" fill="#111111"/>
<path d="M142.024 13.2308H148.606V15.0769H144.342V20.8462H147.783V22.6154H144.342V29.0769H148.606V30.8462H142.024V13.2308Z" fill="#111111"/>
<path d="M150.55 13.2308H153.991C155.344 13.1346 156.689 13.5144 157.805 14.3077C158.628 15 159.002 16.2308 159.002 17.8462C159.002 20.0769 158.329 21.4615 156.908 21.9231L159.301 30.6923H156.983L154.739 22.4615H152.869V30.6923H150.475V13.2308H150.55ZM153.841 20.7692C154.612 20.8346 155.381 20.6165 156.01 20.1538C156.459 19.7692 156.684 19 156.684 17.8462C156.704 17.273 156.628 16.7004 156.459 16.1538C156.291 15.7617 156.002 15.4373 155.636 15.2308C155.121 14.9893 154.556 14.8836 153.991 14.9231H152.944V20.6923H153.841V20.7692Z" fill="#111111"/>
<path d="M161.994 29.4615C161.217 28.1166 160.852 26.5617 160.947 25V19.1538C160.928 18.0391 161.054 16.9268 161.321 15.8462C161.571 15.0386 162.07 14.3367 162.742 13.8462C163.577 13.3377 164.541 13.0967 165.509 13.1538C167.08 13.1538 168.202 13.5385 168.875 14.3846C169.65 15.5019 170.02 16.8624 169.922 18.2308V18.8462H167.679V18.3077C167.682 17.6635 167.632 17.0201 167.529 16.3846C167.466 15.983 167.251 15.6235 166.931 15.3846C166.51 15.1008 166.011 14.9658 165.509 15C164.973 14.9647 164.442 15.1284 164.014 15.4615C163.838 15.614 163.694 15.8018 163.591 16.0134C163.488 16.2251 163.428 16.4561 163.415 16.6923C163.317 17.38 163.267 18.0741 163.266 18.7692V25.3077C163.21 26.3038 163.363 27.3006 163.714 28.2308C164.014 28.8462 164.612 29.0769 165.509 29.0769C165.864 29.1223 166.223 29.0589 166.543 28.8947C166.862 28.7304 167.127 28.4727 167.305 28.1538C167.7 27.1811 167.879 26.1299 167.828 25.0769V23.8462H165.659V22.0769H169.997V30.7692H168.501L168.277 28.7692C168.081 29.4395 167.673 30.0231 167.117 30.4273C166.561 30.8315 165.89 31.0331 165.21 31C164.592 31.0374 163.975 30.9164 163.414 30.6479C162.852 30.3794 162.364 29.9717 161.994 29.4615V29.4615Z" fill="#111111"/>
<path d="M174.784 24.6154L171.119 13.3077H173.363L175.981 21.7692L178.524 13.3077H180.768L177.103 24.6154V30.7692H174.859V24.6154H174.784Z" fill="#111111"/>
</g>
<defs>
<clipPath id="clip0">
<rect width="31.535" height="37.61" fill="white"/>
</clipPath>
<clipPath id="clip1">
<rect width="95.5893" height="18" fill="white" transform="translate(85.1786 13)"/>
</clipPath>
</defs>
</svg>
